<svg width="34" height="35" viewBox="0 0 34 35" fill="none" xmlns="http://www.w3.org/2000/svg">
<path d="M28.4347 5.62222C22.4131 -0.467174 12.9208 -0.906719 6.39825 4.30446L4.91239 2.50481C4.4663 1.96451 3.59041 2.21804 3.50189 2.91307L2.61784 9.85422C2.55391 10.3562 2.96623 10.7907 3.47085 10.7531L10.4298 10.2348C11.1155 10.1837 11.4215 9.34844 10.9311 8.86642L9.21094 7.17577C9.17151 7.13702 9.17514 7.07259 9.21827 7.03846C11.6528 5.26161 14.6288 4.41065 17.6222 4.63489C20.6169 4.85922 23.4377 6.14534 25.5874 8.26741C27.7372 10.3896 29.0778 13.2115 29.3721 16.2362C29.6663 19.2609 28.8954 22.2933 27.1955 24.7989C25.4957 27.3044 22.9765 29.122 20.0823 29.9323C17.1881 30.7426 14.104 30.4939 11.3733 29.2297C8.70984 27.9967 6.54877 25.8747 5.25091 23.2225C5.15049 23.0173 4.96746 22.8596 4.74201 22.7966L1.94062 22.0141C1.34576 21.8479 0.773355 22.4001 0.983736 23.0121C1.80624 25.4048 3.15516 27.5825 4.93354 29.3785C11.4225 35.9405 21.9457 35.9405 28.4347 29.3785C34.9218 22.8183 34.9218 12.1824 28.4347 5.62222Z" fill="white" stroke="white" stroke-width="0.6"/>
</svg>
